<svg xmlns="http://www.w3.org/2000/svg" version="1.1" xmlns:xlink="http://www.w3.org/1999/xlink" xmlns:svgjs="http://svgjs.com/svgjs" width="512" height="512" x="0" y="0" viewBox="0 0 32 32" style="enable-background:new 0 0 512 512" xml:space="preserve" class=""><g><path d="M3.547 23.031a.5.5 0 0 1-.057-.997c.438-.051 1.07-.164 1.848-.304.85-.151 1.869-.334 3.002-.502a.716.716 0 0 0 .578-.5l.976-3.249a.499.499 0 1 1 .957.287l-.975 3.249a1.714 1.714 0 0 1-1.389 1.201c-1.122.167-2.132.348-2.973.498-.804.145-1.456.261-1.909.313a.377.377 0 0 1-.058.004z" fill="#fca311" data-original="#000000"></path><path d="M1.5 23.032a.5.5 0 0 1-.5-.5c0-1.128.76-2.121 1.849-2.414l4.049-1.092.501-1.67a.499.499 0 1 1 .957.287l-.582 1.937a.5.5 0 0 1-.349.339l-4.317 1.164A1.504 1.504 0 0 0 2 22.532a.5.5 0 0 1-.5.5zM10.999 6.003a2.511 2.511 0 0 1-2.498-2.352 2.524 2.524 0 0 1 2.357-2.65l.143-.004a2.51 2.51 0 0 1 2.498 2.352 2.525 2.525 0 0 1-2.357 2.65zm.002-4.006c-.923.055-1.548.755-1.502 1.596.05.789.709 1.41 1.5 1.41l.084-.002a1.504 1.504 0 0 0-.082-3.004z" fill="#fca311" data-original="#000000"></path><path d="M13.529 25.956a.5.5 0 0 1-.493-.422l-.78-4.91a1.901 1.901 0 0 0-.529-.863l-3.064-3.2A2.37 2.37 0 0 1 8 14.912v-4.239l-1.856.622-.499 2.367c-.093.576-.605 1.038-1.212 1.073-.094.003-.184 0-.278-.013a1.317 1.317 0 0 1-1.091-1.502l.626-3.264c.063-.394.323-.75.69-.939l3.54-1.823c.195-.102.402-.143.636-.146l3.87-.043a2.4 2.4 0 0 1 1.322.376l2.208 1.404 1.832-1.139a1.308 1.308 0 0 1 1.985 1.373 1.299 1.299 0 0 1-.566.826l-2.576 1.615a1.319 1.319 0 0 1-1.483-.048l-.79-.409a.5.5 0 1 1 .465-.885l.854.448c.167.116.311.121.418.05l2.575-1.614a.303.303 0 0 0 .083-.42.307.307 0 0 0-.427-.091l-2.107 1.31a.5.5 0 0 1-.532-.003l-2.473-1.572a1.417 1.417 0 0 0-.76-.221h-.016l-3.89.043c-.09.002-.123.01-.169.034l-3.54 1.823a.313.313 0 0 0-.163.225l-.626 3.264c-.024.152.091.312.26.34.209-.006.33-.114.354-.255l.562-2.671a.498.498 0 0 1 .33-.37l2.787-.934a.5.5 0 0 1 .451.067.508.508 0 0 1 .206.408v4.934c0 .358.137.698.385.957l3.046 3.182c.381.357.665.837.804 1.369l.79 4.958a.501.501 0 0 1-.496.577z" fill="#fca311" data-original="#000000"></path><path d="M15.499 26a.499.499 0 0 1-.496-.449l-.599-5.864a1.897 1.897 0 0 0-.265-.743l-2.059-3.171A.509.509 0 0 1 12 15.5v-6a.5.5 0 0 1 1 0v5.852l1.984 3.058c.223.362.359.749.413 1.162l.6 5.878a.5.5 0 0 1-.446.548l-.052.002z" fill="#fca311" data-original="#000000"></path><path d="M5.615 30.608c-.875 0-1.482-.063-1.725-.094a.5.5 0 0 1 .125-.993c1.21.155 12.018 1.161 18.867-10.309l2.431-4.071-1.822-1.088a.5.5 0 0 1 .022-.871l6.752-3.609a.5.5 0 0 1 .735.443v7.642a.501.501 0 0 1-.757.43L28.423 17l-2.431 4.071a.501.501 0 0 1-.86-.512l2.688-4.502a.503.503 0 0 1 .687-.173l1.493.892V10.85l-5.236 2.8 1.492.891a.502.502 0 0 1 .173.686l-2.687 4.501c-5.812 9.73-14.396 10.88-18.127 10.88z" fill="#fca311" data-original="#000000"></path><path d="M24.481 23.033a.466.466 0 0 1-.335-.13c-.195-.195-.23-.477-.035-.672l.07-.07a.5.5 0 0 1 .707.707.58.58 0 0 1-.407.165zM30.5 23.05c-.276 0-.5-.174-.5-.45v-.1a.5.5 0 0 1 1 0c0 .276-.224.55-.5.55zM30.5 25.05c-.276 0-.5-.174-.5-.45v-.1a.5.5 0 0 1 1 0c0 .276-.224.55-.5.55zM30.5 27.05c-.276 0-.5-.174-.5-.45v-.1a.5.5 0 0 1 1 0c0 .276-.224.55-.5.55z" fill="#fca311" data-original="#000000"></path></g></svg>