<svg xmlns="http://www.w3.org/2000/svg" version="1.1" xmlns:xlink="http://www.w3.org/1999/xlink" xmlns:svgjs="http://svgjs.com/svgjs" width="512" height="512" x="0" y="0" viewBox="0 0 48 48" style="enable-background:new 0 0 512 512" xml:space="preserve" class=""><g><path d="M14 9a4 4 0 1 0-5 3.86v7.28a4 4 0 0 0 0 7.72v7.28a4 4 0 1 0 2 0v-7.28a4 4 0 0 0 0-7.72v-7.28A4 4 0 0 0 14 9zM8 9a2 2 0 1 1 2 2 2 2 0 0 1-2-2zm4 30a2 2 0 1 1-2-2 2 2 0 0 1 2 2zm0-15a2 2 0 1 1-2-2 2 2 0 0 1 2 2zM41 6H18a1 1 0 0 0 0 2h23a1 1 0 0 0 0-2zM18 12h13a1 1 0 1 0 0-2H18a1 1 0 0 0 0 2zM42 37a1 1 0 0 0-1-1H18a1 1 0 0 0 0 2h23a1 1 0 0 0 1-1zM18 40a1 1 0 0 0 0 2h13a1 1 0 0 0 0-2zM41 21H18a1 1 0 0 0 0 2h23a1 1 0 0 0 0-2zM18 27h13a1 1 0 1 0 0-2H18a1 1 0 0 0 0 2z" fill="#fca311" data-original="#000000" class=""></path></g></svg>