<svg xmlns="http://www.w3.org/2000/svg" version="1.1" xmlns:xlink="http://www.w3.org/1999/xlink" xmlns:svgjs="http://svgjs.com/svgjs" width="512" height="512" x="0" y="0" viewBox="0 0 512 512" style="enable-background:new 0 0 512 512" xml:space="preserve" class=""><g><path d="M443.425 462.07c0-224.687.539-209.026-1.259-215.421-.004-.016-.012-.03-.016-.046-.006-.023-.008-.048-.014-.071-.012-.044-.04-.081-.053-.124-4.465-16.992-19.813-28.912-37.472-29.009H213.828l2.491-4.928c38.13-16.779 62.655-54.36 62.655-96.284 0-58.027-47.209-105.236-105.239-105.236C115.708 10.95 68.5 58.159 68.5 116.186c0 41.925 24.525 79.506 62.655 96.284l2.491 4.928h-24.224c-21.494 0-38.982 17.491-38.982 38.985v205.686c0 21.494 17.488 38.98 38.982 38.98h295.02c21.494.001 38.983-17.485 38.983-38.979zm-10.417-202.65v80.223l-40.114-40.114zm-40.996-31.589-35.414 35.419-35.417-35.419zM78.916 116.186c0-52.285 42.535-94.82 94.82-94.82s94.822 42.535 94.822 94.82c0 38.364-22.783 72.685-58.045 87.44a5.222 5.222 0 0 0-2.637 2.457l-34.14 67.543-34.138-67.543a5.227 5.227 0 0 0-2.637-2.457c-35.262-14.755-58.045-49.075-58.045-87.44zm1.94 140.198c0-15.752 12.814-28.568 28.566-28.568h29.488l30.176 59.705a5.211 5.211 0 0 0 9.298 0l30.179-59.705h40.05l71.711 71.714-146.817 146.814-92.65-92.567v-97.393zm48.361 234.249h-19.795c-15.752 0-28.566-12.812-28.566-28.563v-35.725l56.323 56.328zm14.733 0 4.279-4.277a5.207 5.207 0 0 0 0-7.365l-67.373-67.375v-43.118l88.971 88.892a5.207 5.207 0 0 0 7.365 0l154.179-154.179a5.207 5.207 0 0 0 0-7.365l-68.029-68.031h43.095l46.479 46.482a5.208 5.208 0 0 0 7.365 0l46.299-46.303c11.14.846 20.695 8.079 24.559 18.565l-49.29 49.288a5.207 5.207 0 0 0 0 7.365l51.161 51.161v43.121l-72.761-72.687a5.204 5.204 0 0 0-7.362 0L198.703 478.991a5.211 5.211 0 0 0 .013 7.38l4.291 4.262zm260.492 0H217.789l-8.026-7.97 146.807-146.81 76.439 76.357v49.859c-.001 15.753-12.815 28.564-28.567 28.564z" fill="#fca311" data-original="#000000" class=""></path><path d="M186.474 341.454a5.207 5.207 0 1 0 7.365-7.365l-12.737-12.738 12.737-12.738a5.207 5.207 0 1 0-7.365-7.365l-12.737 12.738L161 301.248a5.207 5.207 0 1 0-7.365 7.365l12.737 12.738-12.737 12.738a5.207 5.207 0 1 0 7.365 7.365l12.737-12.738zM232.637 116.42c0-32.485-26.43-58.912-58.915-58.912s-58.915 26.427-58.915 58.912 26.43 58.917 58.915 58.917 58.915-26.432 58.915-58.917zm-107.412 0c0-26.743 21.756-48.496 48.498-48.496s48.498 21.753 48.498 48.496-21.756 48.501-48.498 48.501-48.498-21.758-48.498-48.501z" fill="#fca311" data-original="#000000" class=""></path><path d="M194.25 100.903a5.207 5.207 0 0 0-7.365 0L166.9 120.891l-6.342-6.342a5.207 5.207 0 1 0-7.365 7.365l10.025 10.025a5.207 5.207 0 0 0 7.364 0l23.668-23.671a5.206 5.206 0 0 0 0-7.365z" fill="#fca311" data-original="#000000" class=""></path></g></svg>