<svg xmlns="http://www.w3.org/2000/svg" version="1.1" xmlns:xlink="http://www.w3.org/1999/xlink" xmlns:svgjs="http://svgjs.com/svgjs" width="512" height="512" x="0" y="0" viewBox="0 0 64 64" style="enable-background:new 0 0 512 512" xml:space="preserve" class=""><g><path d="M38.949 33h6.11c.5 4.493 4.317 8 8.941 8 4.962 0 9-4.038 9-9s-4.038-9-9-9c-4.624 0-8.441 3.507-8.941 8h-6.11a10.954 10.954 0 0 0-2.501-6.034l6.508-6.508A8.91 8.91 0 0 0 46 19c4.962 0 9-4.038 9-9s-4.038-9-9-9-9 4.038-9 9c0 3.141 1.621 5.908 4.067 7.519l-6.033 6.033a10.953 10.953 0 0 0-11.208-1.724 12.065 12.065 0 0 0-6.603-6.046C19.486 14.367 21 11.86 21 9c0-4.411-3.589-8-8-8S5 4.589 5 9c0 2.86 1.514 5.367 3.777 6.782C4.241 17.496 1 21.871 1 27v10c0 2.206 1.794 4 4 4h1v18c0 2.206 1.794 4 4 4 1.2 0 2.266-.542 3-1.382.734.84 1.8 1.382 3 1.382 2.206 0 4-1.794 4-4V39.526C22.008 41.659 24.847 43 28 43c2.673 0 5.125-.961 7.034-2.552l6.033 6.033C38.621 48.092 37 50.859 37 54c0 4.962 4.038 9 9 9s9-4.038 9-9-4.038-9-9-9c-1.07 0-2.092.197-3.044.541l-6.508-6.508A10.94 10.94 0 0 0 38.949 33zm2.73-17.504C42.564 13.962 44.192 13 46 13s3.436.962 4.321 2.496a6.956 6.956 0 0 1-8.642 0zM44 9c0-1.103.897-2 2-2s2 .897 2 2-.897 2-2 2-2-.897-2-2zm2-6c3.86 0 7 3.14 7 7a6.957 6.957 0 0 1-1.271 4.01 6.943 6.943 0 0 0-2.763-2.351A3.97 3.97 0 0 0 50 9c0-2.206-1.794-4-4-4s-4 1.794-4 4a3.97 3.97 0 0 0 1.034 2.659 6.943 6.943 0 0 0-2.763 2.351A6.957 6.957 0 0 1 39 10c0-3.86 3.14-7 7-7zm-4.321 56.496C42.564 57.962 44.192 57 46 57s3.436.962 4.321 2.496a6.956 6.956 0 0 1-8.642 0zM44 53c0-1.103.897-2 2-2s2 .897 2 2-.897 2-2 2-2-.897-2-2zm9 1a6.957 6.957 0 0 1-1.271 4.01 6.943 6.943 0 0 0-2.763-2.351A3.97 3.97 0 0 0 50 53c0-2.206-1.794-4-4-4s-4 1.794-4 4a3.97 3.97 0 0 0 1.034 2.659 6.943 6.943 0 0 0-2.763 2.351A6.957 6.957 0 0 1 39 54c0-3.86 3.14-7 7-7s7 3.14 7 7zm-3.321-16.504C50.564 35.962 52.192 35 54 35s3.436.962 4.321 2.496a6.956 6.956 0 0 1-8.642 0zM52 31c0-1.103.897-2 2-2s2 .897 2 2-.897 2-2 2-2-.897-2-2zm2-6c3.86 0 7 3.14 7 7a6.957 6.957 0 0 1-1.271 4.01 6.943 6.943 0 0 0-2.763-2.351A3.97 3.97 0 0 0 58 31c0-2.206-1.794-4-4-4s-4 1.794-4 4a3.97 3.97 0 0 0 1.034 2.659 6.943 6.943 0 0 0-2.763 2.351A6.957 6.957 0 0 1 47 32c0-3.86 3.14-7 7-7zM9.587 17.613c.383-.14.775-.259 1.178-.352l-.272 3.81a23.057 23.057 0 0 1-.906-3.458zm3.201-.602c.071-.002.14-.011.212-.011.071 0 .141.007.212.008l.565 7.914c-.247.433-.503.86-.778 1.275-.274-.418-.53-.848-.777-1.283zm2.723 4.104-.276-3.857a9.97 9.97 0 0 1 1.205.366 23.123 23.123 0 0 1-.929 3.491zM7 9c0-3.309 2.691-6 6-6s6 2.691 6 6-2.691 6-6 6-6-2.691-6-6zm11 50c0 1.103-.897 2-2 2s-2-.897-2-2V40.243c0-.534.208-1.037.586-1.415l1.121-1.121-1.414-1.414-1.121 1.121A3.972 3.972 0 0 0 12 40.243V59c0 1.103-.897 2-2 2s-2-.897-2-2V22H6v17H5c-1.103 0-2-.897-2-2V27c0-3.574 1.891-6.707 4.718-8.476a25.226 25.226 0 0 0 3.703 8.911L13 29.803l1.618-2.426a25.246 25.246 0 0 0 3.688-8.836 10.021 10.021 0 0 1 3.751 4.218 11.057 11.057 0 0 0-2.056 1.715V22h-2v5.444c-.636 1.39-1 2.93-1 4.556s.364 3.166 1 4.556V59zm10-18c-4.962 0-9-4.038-9-9s4.038-9 9-9 9 4.038 9 9-4.038 9-9 9z" fill="#fca311" data-original="#000000" class=""></path><path d="M29 29c.551 0 1 .449 1 1h2c0-1.654-1.346-3-3-3v-2h-2v2h-3v3c0 1.654 1.346 3 3 3h2c.551 0 1 .449 1 1v1h-3c-.551 0-1-.449-1-1h-2c0 1.654 1.346 3 3 3v2h2v-2h3v-3c0-1.654-1.346-3-3-3h-2c-.551 0-1-.449-1-1v-1z" fill="#fca311" data-original="#000000" class=""></path></g></svg>