<svg xmlns="http://www.w3.org/2000/svg" version="1.1" xmlns:xlink="http://www.w3.org/1999/xlink" xmlns:svgjs="http://svgjs.com/svgjs" width="512" height="512" x="0" y="0" viewBox="0 0 607.662 607.662" style="enable-background:new 0 0 512 512" xml:space="preserve" class=""><g><path d="M111.424 192.459H70.906c-5.594 0-10.129 4.535-10.129 10.129s4.535 10.129 10.129 10.129h40.518c5.594 0 10.129-4.535 10.129-10.129s-4.535-10.129-10.129-10.129zM232.976 192.459h-40.518c-5.594 0-10.129 4.535-10.129 10.129s4.535 10.129 10.129 10.129h40.518c5.594 0 10.129-4.535 10.129-10.129s-4.534-10.129-10.129-10.129zM314.012 212.717h40.518c5.594 0 10.129-4.535 10.129-10.129s-4.535-10.129-10.129-10.129h-40.518c-5.594 0-10.129 4.535-10.129 10.129s4.534 10.129 10.129 10.129zM435.564 212.717h40.518c5.594 0 10.129-4.535 10.129-10.129s-4.535-10.129-10.129-10.129h-40.518c-5.594 0-10.129 4.535-10.129 10.129s4.535 10.129 10.129 10.129zM111.424 273.494H70.906c-5.594 0-10.129 4.535-10.129 10.129s4.535 10.129 10.129 10.129h40.518c5.594 0 10.129-4.535 10.129-10.129s-4.535-10.129-10.129-10.129zM232.976 273.494h-40.518c-5.594 0-10.129 4.535-10.129 10.129s4.535 10.129 10.129 10.129h40.518c5.594 0 10.129-4.535 10.129-10.129s-4.534-10.129-10.129-10.129zM111.424 354.529H70.906c-5.594 0-10.129 4.535-10.129 10.129s4.535 10.129 10.129 10.129h40.518c5.594 0 10.129-4.535 10.129-10.129s-4.535-10.129-10.129-10.129zM232.976 354.529h-40.518c-5.594 0-10.129 4.535-10.129 10.129s4.535 10.129 10.129 10.129h40.518c5.594 0 10.129-4.535 10.129-10.129.001-5.594-4.534-10.129-10.129-10.129zM111.424 435.564H70.906c-5.594 0-10.129 4.535-10.129 10.129s4.535 10.129 10.129 10.129h40.518c5.594 0 10.129-4.535 10.129-10.129s-4.535-10.129-10.129-10.129zM232.976 435.564h-40.518c-5.594 0-10.129 4.535-10.129 10.129s4.535 10.129 10.129 10.129h40.518c5.594 0 10.129-4.535 10.129-10.129s-4.534-10.129-10.129-10.129z" fill="#fca311" data-original="#000000" class=""></path><path d="M546.988 304.51V70.906c0-16.783-13.605-30.388-30.388-30.388h-30.388v-10.13C486.211 13.605 472.606 0 455.823 0s-30.388 13.605-30.388 30.388v10.129h-60.776V30.388C364.659 13.605 351.053 0 334.27 0s-30.388 13.605-30.388 30.388v10.129h-60.776V30.388C243.106 13.605 229.501 0 212.718 0S182.33 13.605 182.33 30.388v10.129h-60.776V30.388C121.553 13.605 107.948 0 91.165 0S60.777 13.605 60.777 30.388v10.129H30.388C13.605 40.518 0 54.123 0 70.906V496.34c0 16.783 13.605 30.388 30.388 30.388h259.313c35.919 57.536 102.293 88.595 169.481 79.308s122.648-57.188 141.612-122.31-2.108-135.309-53.806-179.216zM445.694 30.388c0-5.594 4.535-10.129 10.129-10.129s10.129 4.535 10.129 10.129v40.518c0 5.594-4.535 10.129-10.129 10.129s-10.129-4.535-10.129-10.129zm-121.553 0c0-5.594 4.535-10.129 10.129-10.129s10.13 4.535 10.13 10.129v40.518c0 5.594-4.535 10.129-10.129 10.129s-10.129-4.535-10.129-10.129V30.388zm-121.553 0c0-5.594 4.535-10.129 10.129-10.129s10.129 4.535 10.129 10.129v40.518c0 5.594-4.535 10.129-10.129 10.129s-10.129-4.535-10.129-10.129zm-121.553 0c0-5.594 4.535-10.129 10.129-10.129s10.129 4.535 10.129 10.129v40.518c0 5.594-4.535 10.129-10.129 10.129S81.035 76.5 81.035 70.906zM30.388 60.776h30.388v10.129c0 16.783 13.605 30.388 30.388 30.388s30.388-13.605 30.388-30.388V60.776h60.776v10.129c0 16.783 13.605 30.388 30.388 30.388s30.388-13.605 30.388-30.388V60.776h60.776v10.129c0 16.783 13.605 30.388 30.388 30.388s30.388-13.605 30.388-30.388V60.776h60.776v10.129c0 16.783 13.605 30.388 30.388 30.388s30.388-13.605 30.388-30.388V60.776h30.388c5.594 0 10.129 4.535 10.129 10.129v50.647H20.259V70.906c0-5.595 4.535-10.13 10.129-10.13zm0 445.694c-5.594 0-10.129-4.535-10.129-10.129V141.812h506.47v147.889c-64.281-40.448-147.488-33.909-204.661 16.083s-74.755 131.583-43.246 200.686zm405.176 81.035c-83.915 0-151.941-68.026-151.941-151.941s68.026-151.941 151.941-151.941 151.941 68.026 151.941 151.941c-.095 83.875-68.065 151.846-151.941 151.941z" fill="#fca311" data-original="#000000" class=""></path><path d="M496.341 405.176h-30.388v-30.388c0-16.783-13.605-30.388-30.388-30.388s-30.388 13.605-30.388 30.388v30.388h-30.388c-16.783 0-30.388 13.605-30.388 30.388s13.605 30.388 30.388 30.388h30.388v30.388c0 16.783 13.605 30.388 30.388 30.388s30.388-13.605 30.388-30.388v-30.388h30.388c16.783 0 30.388-13.605 30.388-30.388s-13.605-30.388-30.388-30.388zm0 40.517h-40.518c-5.594 0-10.129 4.535-10.129 10.129v40.518c0 5.594-4.535 10.129-10.129 10.129s-10.129-4.535-10.129-10.129v-40.518c0-5.594-4.535-10.129-10.129-10.129h-40.518c-5.594 0-10.129-4.535-10.129-10.129s4.535-10.129 10.129-10.129h40.518c5.594 0 10.129-4.535 10.129-10.129v-40.518c0-5.594 4.535-10.129 10.129-10.129s10.129 4.535 10.129 10.129v40.518c0 5.594 4.535 10.129 10.129 10.129h40.518c5.594 0 10.129 4.535 10.129 10.129s-4.535 10.129-10.129 10.129z" fill="#fca311" data-original="#000000" class=""></path></g></svg>