<svg xmlns="http://www.w3.org/2000/svg" version="1.1" xmlns:xlink="http://www.w3.org/1999/xlink" xmlns:svgjs="http://svgjs.com/svgjs" width="512" height="512" x="0" y="0" viewBox="0 0 512 512" style="enable-background:new 0 0 512 512" xml:space="preserve" class=""><g><path d="M114.1 133.956a16 16 0 0 0 14.5 9.231h77.8v27.481a16 16 0 0 0 32 0v-27.481h7.37a16 16 0 1 0 0-32h-7.37V15.172A16 16 0 0 0 210.136 4.9L116.33 116.915a16 16 0 0 0-2.23 17.041zM206.4 59.2v51.989h-43.535zm80.97 339.867L371.192 268.2h-61.718a16 16 0 0 1 0-32h90.967a16 16 0 0 1 13.473 24.63l-99.6 155.5a16 16 0 1 1-26.946-17.26zm83.76-294.007a16 16 0 0 1 0 22.627L135.272 363.546a16 16 0 0 1-22.627-22.627L348.5 105.06a16 16 0 0 1 22.63 0zM90.5 71.538c4.05-14.83 1.483-26-7.629-33.215-10.2-8.07-27.183-9.5-38.664-3.246-8.722 4.75-12.587 12.957-11.487 24.4A16 16 0 1 1 .865 62.536C-1.476 38.2 8.743 17.951 28.9 6.974c22.625-12.32 53.672-9.69 73.824 6.254 19.268 15.245 26.062 39.571 18.642 66.74-5.008 18.338-22.15 31.714-42 47.205-10.716 8.362-22.274 17.381-31.965 27.5h66.279a16 16 0 0 1 0 32H16.335a16 16 0 0 1-14.4-22.985c13.025-26.844 36.781-45.382 57.74-61.738C73.746 90.969 88.29 79.619 90.5 71.538zM512 256.828a256 256 0 0 1-437.02 181.02A254.327 254.327 0 0 1 0 256.828a16 16 0 0 1 32 0c0 123.514 100.486 224 224 224s224-100.486 224-224c0-112.136-83.714-207.617-194.726-222.1A16 16 0 1 1 289.414 3 256.04 256.04 0 0 1 512 256.828z" fill="#fca311" data-original="#000000" class=""></path></g></svg>