<svg xmlns="http://www.w3.org/2000/svg" version="1.1" xmlns:xlink="http://www.w3.org/1999/xlink" xmlns:svgjs="http://svgjs.com/svgjs" width="512" height="512" x="0" y="0" viewBox="0 0 511 511.999" style="enable-background:new 0 0 512 512" xml:space="preserve" class=""><g><path d="M400.84 385.395c-36.617-26.903-79.43-43.805-124.383-49.196l16.3-40.258c1.024-2.527 3.048-4.523 5.556-5.48 28.113-10.734 52.136-29.48 69.48-54.211 17.746-25.309 27.125-55.082 27.125-86.098 0-39.902-15.48-77.472-43.59-105.785C323.23 16.067 285.808.313 245.95.004c-36.875-.313-72.511 13.07-100.332 37.598a7.499 7.499 0 0 0-.664 10.586 7.498 7.498 0 0 0 10.582.667c25.047-22.082 57.113-34.125 90.297-33.851 35.875.277 69.563 14.457 94.852 39.93 25.3 25.488 39.234 59.304 39.234 95.218 0 27.918-8.438 54.711-24.406 77.485-15.617 22.27-37.246 39.148-62.551 48.812-6.383 2.434-11.523 7.488-14.106 13.863l-21.218 52.395c-.028.066-.055.137-.082.207l-.024.059-8.004 19.757c-1.172 2.899-3.714 3.208-4.757 3.208-1.04 0-3.586-.313-4.758-3.208l-9.215-22.757c-.04-.094-.074-.192-.117-.285l-19.992-49.372c-2.586-6.382-7.704-11.43-14.047-13.847-53.336-20.332-88.293-72.375-86.985-129.492.64-27.926 9.813-54.579 26.528-77.079a7.5 7.5 0 0 0-1.551-10.492 7.497 7.497 0 0 0-10.492 1.547c-18.575 25.008-28.77 54.637-29.48 85.68-1.454 63.453 37.382 121.262 96.636 143.851 2.46.942 4.46 2.93 5.488 5.465l16.297 40.246a262.449 262.449 0 0 0-61.148 14.914 7.503 7.503 0 0 0-4.383 9.66 7.507 7.507 0 0 0 7.023 4.864c.875 0 1.77-.156 2.637-.48a247.164 247.164 0 0 1 41.191-11.528c-18.261 15.996-34.242 41.344-46.742 73.867h-29.129c8.922-11.574 14.106-25.98 14.106-41.117 0-36.844-29.969-67.047-66.805-67.328-.176-.004-.348-.004-.52-.004-36.34 0-66.488 29.39-67.32 65.754-.652 28.398 16.7 54.277 43.184 64.45L57.44 479.53a12.753 12.753 0 0 0 11.864 7.996c5.238 0 9.894-3.14 11.863-7.996l12.262-30.285a66.374 66.374 0 0 0 13.054-6.754h39.829c-5.504 16.66-10.16 34.91-13.836 54.508H17.328a249.11 249.11 0 0 1 14.965-28.457 7.501 7.501 0 1 0-12.8-7.824A264.515 264.515 0 0 0 1.39 496.055c-1.489 3.562-1.094 7.61 1.047 10.82S8.156 512 12.012 512h465.52c3.859 0 7.44-1.922 9.581-5.14a11.472 11.472 0 0 0 1.02-10.825c-18.488-44.012-48.676-82.273-87.293-110.64zM87.965 435.277a14.78 14.78 0 0 0-8.402 8.25l-10.258 25.336-10.262-25.336c-1.535-3.797-4.59-6.8-8.375-8.242-20.652-7.875-34.188-28.023-33.68-50.144.649-28.262 24.078-51.098 52.325-51.098h.406c28.625.219 51.918 23.695 51.918 52.328 0 21.563-13.532 41.215-33.672 48.906zM221.03 355.82l5.078 12.543c3.094 7.64 10.418 12.574 18.66 12.574 8.243 0 15.567-4.933 18.66-12.574l5.075-12.527c11.898 6.633 23.496 18.309 33.883 34.187a7.485 7.485 0 0 0 10.379 2.172c3.468-2.265 4.437-6.914 2.171-10.383-7.46-11.406-15.41-20.82-23.789-28.18a247.838 247.838 0 0 1 100.809 43.848 250.42 250.42 0 0 1 33.93 30.008H337.78A284.949 284.949 0 0 0 329.934 409a7.5 7.5 0 1 0-13.582 6.36 261.386 261.386 0 0 1 5.296 12.132H167.852c14.296-35.07 32.78-60.383 53.18-71.672zM147.75 497c3.82-19.695 8.703-37.984 14.45-54.512h165.105c5.816 16.711 10.71 35.102 14.488 54.512zm209.313 0c-3.622-19.258-8.325-37.625-13.922-54.512h95.804A248.79 248.79 0 0 1 472.207 497zm0 0" fill="#fca311" data-original="#000000" class=""></path><path d="M182.703 239.492h124.14c7.805 0 14.16-6.355 14.16-14.16v-81.129c5.724-6.012 9.24-14.14 9.24-23.074V100.09c0-.028 0-.055-.005-.082 0-.067-.004-.137-.004-.2v-.015a7.494 7.494 0 0 0-1-3.387l-20.136-36.515a16.787 16.787 0 0 0-14.692-8.672h-31.058c-.07-.004-.133-.004-.203-.004h-36.75c-.067 0-.133 0-.2.004h-31.058a16.787 16.787 0 0 0-14.692 8.672l-20.14 36.52a7.467 7.467 0 0 0-1.004 3.605v.054c0 .032-.004.063-.004.094v20.965c0 8.937 3.52 17.066 9.246 23.078v81.125c0 7.805 6.352 14.16 14.16 14.16zm74.195-173.277 4.86 26.45h-33.973l4.856-26.45zm58.344 54.914c0 10.191-8.297 18.488-18.492 18.488s-18.488-8.297-18.488-18.488v-13.465h36.98zm-88.96-13.461h36.98v13.46c0 10.196-8.297 18.49-18.492 18.49-10.196 0-18.493-8.294-18.493-18.49v-13.46zm-15 0v13.46c0 10.196-8.298 18.49-18.493 18.49-10.195 0-18.492-8.294-18.492-18.49v-13.46zm48.976 116.824h-30.973v-47.199h30.973zm15 0v-52.894c0-5.133-4.176-9.305-9.305-9.305h-42.367c-5.129 0-9.3 4.172-9.3 9.305v52.894h-30.743V153.32a33.443 33.443 0 0 0 9.246 1.297c10.477 0 19.844-4.836 25.992-12.39 6.145 7.554 15.512 12.39 25.989 12.39 10.476 0 19.843-4.836 25.992-12.39 6.144 7.554 15.511 12.39 25.988 12.39 3.21 0 6.313-.453 9.254-1.3v71.175zM295.96 67.137l14.082 25.527h-33.035l-4.86-26.445h22.258a1.758 1.758 0 0 1 1.555.918zm-102.383 0c.313-.57.91-.922 1.555-.922h22.258l-4.856 26.45H179.5zM423.652 306.95c13.7 0 24.848-11.15 24.848-24.848 0-13.704-11.145-24.852-24.848-24.852s-24.851 11.148-24.851 24.852c0 13.699 11.148 24.847 24.851 24.847zm0-34.696c5.43 0 9.848 4.418 9.848 9.848 0 5.43-4.418 9.847-9.848 9.847-5.433 0-9.851-4.418-9.851-9.847.004-5.434 4.422-9.848 9.851-9.848zm0 0" fill="#fca311" data-original="#000000" class=""></path><path d="M383.7 237.008a7.503 7.503 0 0 0 10.429 1.933c8.867-6.093 19.226-9.261 29.937-9.187 28.63.219 51.918 23.695 51.918 52.328 0 21.563-13.53 41.215-33.668 48.902a14.78 14.78 0 0 0-8.402 8.25l-10.262 25.34-10.257-25.34c-1.54-3.793-4.594-6.796-8.38-8.238-20.652-7.875-34.187-28.027-33.68-50.148a51.532 51.532 0 0 1 5.333-21.762 7.497 7.497 0 0 0-3.402-10.043c-3.72-1.832-8.215-.309-10.047 3.406-4.34 8.793-6.653 18.23-6.88 28.055-.651 28.398 16.696 54.277 43.188 64.45l12.262 30.284a12.747 12.747 0 0 0 11.863 7.996c5.239 0 9.899-3.136 11.864-7.996l12.265-30.285c25.848-9.926 43.203-35.176 43.203-62.871 0-36.844-29.968-67.047-66.804-67.328-13.817-.078-27.137 3.984-38.547 11.824a7.504 7.504 0 0 0-1.934 10.43zM69.305 361.543c-13.703 0-24.852 11.148-24.852 24.848 0 13.703 11.149 24.847 24.852 24.847 13.699 0 24.847-11.144 24.847-24.847 0-13.7-11.148-24.848-24.847-24.848zm0 34.695c-5.434 0-9.852-4.418-9.852-9.847s4.418-9.848 9.852-9.848c5.43 0 9.847 4.418 9.847 9.848s-4.418 9.847-9.847 9.847zm0 0" fill="#fca311" data-original="#000000" class=""></path></g></svg>