<svg xmlns="http://www.w3.org/2000/svg" version="1.1" xmlns:xlink="http://www.w3.org/1999/xlink" xmlns:svgjs="http://svgjs.com/svgjs" width="512" height="512" x="0" y="0" viewBox="0 0 512 512" style="enable-background:new 0 0 512 512" xml:space="preserve" class=""><g><path d="m496.935 370.662-79.193-79.193c-20.056-20.055-52.686-20.055-72.74 0l-25.764 25.765c-8.248 8.247-21.666 8.247-29.911 0l-94.625-94.625c-8.248-8.247-8.248-21.665 0-29.911l25.764-25.764c9.715-9.715 15.064-22.631 15.064-36.37 0-13.739-5.35-26.655-15.064-36.37l-79.128-79.128A51.484 51.484 0 0 0 101.888.093a51.468 51.468 0 0 0-37.377 19.582L36.186 55.757C-16.8 123.252-11.002 219.906 49.674 280.581l181.745 181.744c32.913 32.912 76.395 49.678 120.081 49.674 36.855-.003 73.859-11.94 104.742-36.186l36.083-28.325a51.47 51.47 0 0 0 19.581-37.378 51.461 51.461 0 0 0-14.971-39.448zm-4.994 38.252a31.454 31.454 0 0 1-11.967 22.843l-19.112 15.003-59.982-59.982c-3.905-3.904-10.238-3.904-14.144 0-3.905 3.905-3.905 10.238 0 14.144l58.279 58.279-1.123.881c-59.542 46.744-144.803 41.628-198.33-11.898L63.817 266.438C10.292 212.913 5.176 127.649 51.918 68.108l28.325-36.082a31.453 31.453 0 0 1 22.842-11.967 31.454 31.454 0 0 1 24.109 9.15l79.128 79.128c12.256 12.255 12.256 32.198 0 44.452l-19.632 19.632-71.602-71.602c-3.905-3.905-10.238-3.905-14.144 0-3.905 3.905-3.905 10.238 0 14.144l72.732 72.732c-8.672 15.649-6.386 35.791 6.881 49.057l94.625 94.625c16.044 16.043 42.151 16.044 58.198 0l25.764-25.765c12.256-12.257 32.198-12.257 44.453 0l79.192 79.193a31.451 31.451 0 0 1 9.152 24.109z" fill="#fca311" data-original="#000000" class=""></path><path d="M374.559 360.459a10.054 10.054 0 0 0-7.071-2.93c-2.63 0-5.21 1.07-7.071 2.93a10.076 10.076 0 0 0-2.93 7.071c0 2.63 1.07 5.21 2.93 7.07a10.073 10.073 0 0 0 7.071 2.931c2.63 0 5.21-1.07 7.071-2.931a10.072 10.072 0 0 0 2.93-7.07c0-2.631-1.07-5.21-2.93-7.071zM132.39 265.601a10.073 10.073 0 0 0-7.071-2.931c-2.64 0-5.22 1.071-7.081 2.931a10.082 10.082 0 0 0-2.92 7.07c0 2.631 1.06 5.21 2.92 7.071 1.87 1.87 4.44 2.93 7.081 2.93 2.63 0 5.21-1.059 7.071-2.93a10.057 10.057 0 0 0 2.93-7.071c0-2.631-1.07-5.2-2.93-7.07zM102.053 235.269l-6.999-6.999c-23.439-23.438-32.591-57.873-23.884-89.868 1.45-5.329-1.694-10.826-7.024-12.276-5.333-1.454-10.826 1.694-12.276 7.024-10.586 38.898.542 80.765 29.039 109.264l6.999 6.999c1.952 1.953 4.512 2.929 7.072 2.929s5.118-.976 7.073-2.928c3.905-3.907 3.905-10.24 0-14.145zM306.193 0c-5.523 0-10.001 4.477-10.001 10.001s4.477 10.001 10.001 10.001c102.454 0 185.806 83.352 185.806 185.805 0 5.523 4.477 10.001 10.001 10.001s10-4.477 10-10.001C512 92.325 419.676 0 306.193 0z" fill="#fca311" data-original="#000000" class=""></path><path d="M306.193 68.823c-5.523 0-10.001 4.477-10.001 10.001s4.477 10.001 10.001 10.001c64.505 0 116.983 52.478 116.983 116.983 0 5.523 4.477 10.001 10.001 10.001s10.001-4.477 10.001-10.001c0-75.534-61.452-136.985-136.985-136.985zM306.193 141.383c-5.523 0-10.001 4.477-10.001 10.001s4.477 10.001 10.001 10.001c24.495 0 44.422 19.928 44.422 44.422 0 5.523 4.477 10.001 10.001 10.001s10.001-4.477 10.001-10.001c0-35.523-28.9-64.424-64.424-64.424z" fill="#fca311" data-original="#000000" class=""></path></g></svg>