<svg id="wave" style="transform:rotate(180deg); transition: 0.3s" viewBox="0 0 1440 100" version="1.1" xmlns="http://www.w3.org/2000/svg"><defs><linearGradient id="sw-gradient-0" x1="0" x2="0" y1="1" y2="0"><stop stop-color="rgba(255, 255, 255, 1)" offset="0%"></stop><stop stop-color="rgba(255, 255, 255, 1)" offset="100%"></stop></linearGradient></defs><path style="transform:translate(0, 0px); opacity:1" fill="url(#sw-gradient-0)" d="M0,30L15,30C30,30,60,30,90,26.7C120,23,150,17,180,16.7C210,17,240,23,270,31.7C300,40,330,50,360,48.3C390,47,420,33,450,38.3C480,43,510,67,540,73.3C570,80,600,70,630,56.7C660,43,690,27,720,28.3C750,30,780,50,810,53.3C840,57,870,43,900,33.3C930,23,960,17,990,13.3C1020,10,1050,10,1080,21.7C1110,33,1140,57,1170,60C1200,63,1230,47,1260,36.7C1290,27,1320,23,1350,28.3C1380,33,1410,47,1440,43.3C1470,40,1500,20,1530,23.3C1560,27,1590,53,1620,56.7C1650,60,1680,40,1710,28.3C1740,17,1770,13,1800,10C1830,7,1860,3,1890,1.7C1920,0,1950,0,1980,10C2010,20,2040,40,2070,40C2100,40,2130,20,2145,10L2160,0L2160,100L2145,100C2130,100,2100,100,2070,100C2040,100,2010,100,1980,100C1950,100,1920,100,1890,100C1860,100,1830,100,1800,100C1770,100,1740,100,1710,100C1680,100,1650,100,1620,100C1590,100,1560,100,1530,100C1500,100,1470,100,1440,100C1410,100,1380,100,1350,100C1320,100,1290,100,1260,100C1230,100,1200,100,1170,100C1140,100,1110,100,1080,100C1050,100,1020,100,990,100C960,100,930,100,900,100C870,100,840,100,810,100C780,100,750,100,720,100C690,100,660,100,630,100C600,100,570,100,540,100C510,100,480,100,450,100C420,100,390,100,360,100C330,100,300,100,270,100C240,100,210,100,180,100C150,100,120,100,90,100C60,100,30,100,15,100L0,100Z"></path></svg>