<svg xmlns="http://www.w3.org/2000/svg" version="1.1" xmlns:xlink="http://www.w3.org/1999/xlink" xmlns:svgjs="http://svgjs.com/svgjs" width="512" height="512" x="0" y="0" viewBox="0 0 480.009 480.009" style="enable-background:new 0 0 512 512" xml:space="preserve" class=""><g><path d="M351.978 328.009h-64v-44.992a96 96 0 0 0 48-83.008v-40h8v-16h-23.016a24.048 24.048 0 0 1-23.344-18.4l-17.936-63.76a7.998 7.998 0 0 0-7.704-5.84 8 8 0 0 0-7.696 5.808l-16.48 57.952c-3.559 14.238-16.348 24.23-31.024 24.24h-80.8v16h8v40a96 96 0 0 0 48 83.008v52.992a8 8 0 0 0 2.344 5.656l40 40a8 8 0 0 0 11.312 0l37.656-37.656h68.688c22.08.026 39.974 17.92 40 40v80h-304v-8h-16v16a8 8 0 0 0 8 8h320a8 8 0 0 0 8-8v-88c-.035-30.913-25.087-55.964-56-56zm-80 4.688-32 32-32-32v-42.288a94.236 94.236 0 0 0 64 0v42.288zm-32-52.688c-44.183 0-80-35.817-80-80v-40h56.8c21.946.052 41.115-14.83 46.504-36.104l8.68-30.52 10.224 36.328c4.358 17.432 19.828 29.801 37.792 30.216v40.08c0 44.183-35.817 80-80 80z" fill="#fca311" data-original="#000000" class=""></path><path d="M151.978 328.009h-24v16h24c22.091 0 40 17.909 40 40s-17.909 40-40 40h-40c-13.255 0-24-10.745-24-24h-16c.026 22.08 17.92 39.974 40 40h40c30.928 0 56-25.072 56-56s-25.072-56-56-56z" fill="#fca311" data-original="#000000" class=""></path><path d="M421.208 294.278a55.983 55.983 0 0 0-19.55-11.332v-.032a31.709 31.709 0 0 0 6.32-18.904c0-17.673-14.327-32-32-32v-92.384C377.072 66.002 320.039 4.553 246.538.162 171.514-3.462 107.759 54.42 104.136 129.443a135.65 135.65 0 0 0-.158 6.566v96c-17.673 0-32 14.327-32 32a31.709 31.709 0 0 0 6.32 18.904c-29.324 9.83-45.127 41.571-35.297 70.895 7.636 22.78 28.952 38.15 52.977 38.201h48v-16h-48c-22.091 0-40-17.909-40-40s17.909-40 40-40h48v-16h-40c-8.837 0-16-7.163-16-16s7.163-16 16-16h8a8 8 0 0 0 8-8v-104c-.003-66.274 53.721-120.002 119.995-120.005 1.941 0 3.882.047 5.821.141 64.953 4.012 115.257 58.412 114.184 123.48v100.384a8 8 0 0 0 8 8h8c8.837 0 16 7.163 16 16s-7.163 16-16 16h-40v16h48c22.091 0 40 17.909 39.999 40.001a40 40 0 0 1-10.183 26.663l11.92 10.672c20.59-23.078 18.572-58.478-4.506-79.067z" fill="#fca311" data-original="#000000" class=""></path><path d="M199.978 178.009c-7.732 0-14 6.268-14 14s6.268 14 14 14 14-6.268 14-14c-.009-7.728-6.272-13.991-14-14zm-2 14a2 2 0 1 1 4 0c0 2.2-4 2.2-4 0zM279.978 178.009c-7.732 0-14 6.268-14 14 .009 7.728 6.272 13.991 14 14 7.732 0 14-6.268 14-14s-6.268-14-14-14zm-2 14a2 2 0 1 1 4 0c0 2.2-4 2.2-4 0zM257.978 232.009c0 9.941-8.059 18-18 18s-18-8.059-18-18h-12c0 16.569 13.431 30 30 30s30-13.431 30-30h-12z" fill="#fca311" data-original="#000000" class=""></path></g></svg>